C:\GBW_MyPrograms\KinderuniversiteitApp\Resultaten\Ellis\SpongeBob_v3.mot
version=1
nRows=16
nColumns=31
inDegrees=yes
endheader
                time	         pelvis_tilt	           pelvis_tx	           pelvis_ty	       hip_flexion_r	        knee_angle_r	       ankle_angle_r	       hip_flexion_l	        knee_angle_l	       ankle_angle_l	    lumbar_extension	          arm_flex_r	          arm_flex_l	hamstrings_r/activation	bifemsh_r/activation	glut_max_r/activation	iliopsoas_r/activation	rect_fem_r/activation	  vasti_r/activation	gastroc_r/activation	 soleus_r/activation	tib_ant_r/activation	hamstrings_l/activation	bifemsh_l/activation	glut_max_l/activation	iliopsoas_l/activation	rect_fem_l/activation	  vasti_l/activation	gastroc_l/activation	 soleus_l/activation	tib_ant_l/activation	
          1.11400229	         -1.28827805	          1.47234047	          1.03221083	         24.98104717	        -43.93637977	         -3.60519144	          9.45238273	        -19.37460545	          3.59213681	         -3.13758140	         -3.73107701	         -3.73107937	          0.18075431	          0.67930650	          0.22260236	          0.79063104	          0.69376803	          0.30144778	          0.24308007	          0.06622882	          0.89152588	          0.52899098	          0.65307577	          0.48780792	          0.69735061	          0.57527837	          0.44600620	          0.06426064	          0.05669773	          0.91129130	
          1.12142898	         -1.32283558	          1.48164590	          1.02519983	         26.01679700	        -44.17322533	         -2.30253263	          8.96527805	        -19.20527277	          5.46854041	         -3.15618561	         -3.65829328	         -3.65829563	          0.17889644	          0.67957592	          0.22614005	          0.78921998	          0.69100449	          0.29843103	          0.22794832	          0.06177408	          0.89232495	          0.50935439	          0.65003749	          0.50199531	          0.67333748	          0.58073132	          0.45211467	          0.05838062	          0.05104273	          0.92496741	
          1.12885566	         -1.35140841	          1.49097834	          1.01770224	         27.02014391	        -44.27155201	         -1.03771732	          8.49043107	        -19.42281677	          7.76079622	         -3.17879927	         -3.58828201	         -3.58828426	          0.17216037	          0.68418471	          0.23128081	          0.79789375	          0.69306312	          0.28915130	          0.21541900	          0.05884511	          0.88873868	          0.46794391	          0.62488416	          0.53651149	          0.64224334	          0.60426809	          0.51514343	          0.10396288	          0.07336492	          0.83056560	
          1.13628234	         -1.37377916	          1.50036446	          1.00987695	         27.98630524	        -44.23982649	          0.12286900	          7.98330738	        -19.86848049	         10.45384878	         -3.20289791	         -3.52486632	         -3.52486852	          0.18334796	          0.69449429	          0.21968033	          0.79654233	          0.69311535	          0.27799306	          0.20664178	          0.05918339	          0.88163690	          0.43056831	          0.61019902	          0.58160608	          0.60573681	          0.62541089	          0.56732871	          0.14437020	          0.09183217	          0.75636790	
          1.14370902	         -1.38137168	          1.50972401	          1.00226228	         28.88281654	        -44.03578092	          1.03538653	          7.63128525	        -20.58888460	         12.71928907	         -3.24876235	         -3.45524626	         -3.45524837	          0.17318406	          0.70331102	          0.22194832	          0.82699473	          0.72187676	          0.26816562	          0.19907083	          0.06012768	          0.87611496	          0.39032244	          0.58397781	          0.55475362	          0.65875017	          0.70713038	          0.66251755	          0.17890657	          0.11702635	          0.69545135	
          1.15113570	         -1.40468695	          1.51894360	          0.99543688	         29.71635320	        -43.62913002	          1.76255418	          7.82128765	        -22.18619234	         14.58584664	         -3.29486087	         -3.37058088	         -3.37058286	          0.16718157	          0.70075220	          0.20964389	          0.81773121	          0.72521096	          0.27139374	          0.19309735	          0.06101643	          0.86263440	          0.35548146	          0.56712880	          0.52844843	          0.66836292	          0.74607246	          0.73179837	          0.21511150	          0.14158560	          0.64195664	
          1.15856238	         -1.46392965	          1.52816230	          0.98944970	         30.50637312	        -43.10297588	          2.47788840	          8.41379429	        -24.39519631	         16.11722196	         -3.30187058	         -3.29502341	         -3.29502534	          0.16477391	          0.68239363	          0.22563787	          0.80518692	          0.73222525	          0.30235507	          0.19091662	          0.06764662	          0.82883085	          0.32430628	          0.54500124	          0.53349714	          0.66100325	          0.78966469	          0.79841937	          0.25466916	          0.18238813	          0.59202077	
          1.16598907	         -1.52556368	          1.53761137	          0.98420160	         31.20543006	        -42.51329873	          2.98248993	          8.98884886	        -26.54936344	         17.31780865	         -3.28258355	         -3.25378571	         -3.25378744	          0.17259939	          0.66452868	          0.23952596	          0.77103795	          0.72770245	          0.34810438	          0.18981429	          0.07505606	          0.78392135	          0.29979295	          0.52538602	          0.54936405	          0.63753718	          0.80904566	          0.84649476	          0.29351041	          0.22419554	          0.54425612	
          1.17341575	         -1.57760671	          1.54742465	          0.97965019	         31.77480720	        -41.87536660	          3.16406473	          9.32643472	        -28.30311174	         18.26304160	         -3.23573589	         -3.26296870	         -3.26297039	          0.18224796	          0.64268730	          0.27216501	          0.73419196	          0.72621097	          0.42074483	          0.18790627	          0.08115609	          0.72430929	          0.28014079	          0.50750400	          0.56909193	          0.62322955	          0.82542331	          0.87848006	          0.33264952	          0.26787556	          0.49682788	
          1.18084243	         -1.62159852	          1.55765316	          0.97580659	         32.18181044	        -41.22617991	          3.14422367	          9.38592107	        -29.59351631	         19.00029058	         -3.15371640	         -3.32990128	         -3.32990274	          0.19824281	          0.61478214	          0.32278161	          0.68795193	          0.72272449	          0.52240765	          0.17986397	          0.07746202	          0.65290167	          0.26768123	          0.49236207	          0.57733552	          0.60895374	          0.83170288	          0.89524108	          0.37238692	          0.31227987	          0.44834385	
          1.18826911	         -1.65872640	          1.56831109	          0.97269962	         32.40164690	        -40.72107026	          3.00732006	          9.18644379	        -30.45334266	         19.53747699	         -3.03344695	         -3.45658988	         -3.45659127	          0.23266563	          0.58510452	          0.37796044	          0.64014587	          0.71597635	          0.61419722	          0.18777916	          0.08071608	          0.58274515	          0.26517112	          0.48118311	          0.57302153	          0.59333610	          0.82820639	          0.89255328	          0.41265695	          0.35540334	          0.40038957	
          1.19569579	         -1.68655803	          1.57939220	          0.97036321	         32.41826991	        -40.61294887	          2.93095380	          8.75140934	        -30.92407612	         19.86518297	         -2.87829463	         -3.64130866	         -3.64130982	          0.30056134	          0.56370097	          0.42920504	          0.59423095	          0.70433454	          0.67241490	          0.23127172	          0.17258040	          0.51970535	          0.27726546	          0.47478195	          0.57058020	          0.56774822	          0.81207281	          0.86568396	          0.45396137	          0.39823020	          0.35726549	
          1.20312248	         -1.70125678	          1.59086461	          0.96884620	         32.19892475	        -40.97029646	          3.07566843	          8.09569662	        -31.02959259	         19.96252425	         -2.69607075	         -3.87837993	         -3.87838097	          0.35032933	          0.54521391	          0.49312201	          0.55098479	          0.69832302	          0.73691767	          0.24209100	          0.19476663	          0.46346875	          0.29089871	          0.47050057	          0.57492856	          0.53714289	          0.79501492	          0.82004050	          0.49927959	          0.44971131	          0.31866748	
          1.21054916	         -1.70031712	          1.60269731	          0.96820788	         31.63277610	        -41.27972885	          3.75228123	          7.22351000	        -30.76976323	         19.79634663	         -2.49276208	         -4.16252027	         -4.16252112	          0.38529225	          0.52242612	          0.57438072	          0.50264804	          0.69088306	          0.80533849	          0.23613817	          0.19498424	          0.41333545	          0.29103820	          0.46052036	          0.56843630	          0.49696049	          0.79338143	          0.78796442	          0.55786259	          0.53838394	          0.28417631	
          1.21797584	         -1.68703938	          1.61483625	          0.96847965	         30.65541790	        -40.99582922	          4.51349658	          6.14396394	        -30.13853510	         19.32649747	         -2.26996699	         -4.48643874	         -4.48643941	          0.39386231	          0.48339160	          0.66532824	          0.45253076	          0.69940315	          0.86221777	          0.24387682	          0.26601674	          0.36855765	          0.27869532	          0.43457587	          0.54467232	          0.46273630	          0.80498834	          0.71860320	          0.63158214	          0.63809586	          0.25338189	
          1.22540252	         -1.66506789	          1.62718344	          0.96965470	         29.34246126	        -40.18732524	          5.22068328	          4.88760348	        -29.16528520	         18.51534852	         -2.03375418	         -4.83673066	         -4.83673119	          0.42297370	          0.44728913	          0.73357913	          0.40601135	          0.69409335	          0.88296340	          0.27190976	          0.43998160	          0.32861394	          0.28588571	          0.41991692	          0.49884879	          0.45438891	          0.78902813	          0.64126626	          0.70406693	          0.71701069	          0.22590715	
